<svg id="Слой_1" data-name="Слой 1" xmlns="http://www.w3.org/2000/svg" viewBox="0 0 53.45 44.09">
  <defs>
    <style>
      .cls-1, .cls-2 {
        fill: none;
        stroke: #bababa;
        stroke-miterlimit: 22.93;
        stroke-width: 1.98px;
      }

      .cls-1 {
        fill-rule: evenodd;
      }
    </style>
  </defs>
  <title>мебель-интерьер</title>
  <g>
    <path class="cls-1" d="M210.15,431.89a12.16,12.16,0,0,1,12.13-12.12h18.14a12.16,12.16,0,0,1,12.12,12.12" transform="translate(-204.62 -418.77)"/>
    <path class="cls-1" d="M205.61,441.23a15.61,15.61,0,0,0,7,12.63m4.72,2.48a22.36,22.36,0,0,0,7.78,1.38h12.46a22.39,22.39,0,0,0,7.79-1.38m4.6-2.4c4.34-3,7.11-7.61,7.11-12.71" transform="translate(-204.62 -418.77)"/>
    <path class="cls-1" d="M219.44,445v-4.56a6.93,6.93,0,0,0-6.91-6.91h0a6.93,6.93,0,0,0-6.91,6.91v0.79" transform="translate(-204.62 -418.77)"/>
    <path class="cls-1" d="M243.25,445v-4.56a6.93,6.93,0,0,1,6.91-6.91h0a6.93,6.93,0,0,1,6.91,6.91v0.79" transform="translate(-204.62 -418.77)"/>
    <polyline class="cls-1" points="41.82 39.11 44.35 43.1 50.16 43.1 46.5 37.14"/>
    <polyline class="cls-1" points="11.64 39.11 9.1 43.1 3.3 43.1 6.95 37.14"/>
    <path class="cls-1" d="M216.21,446.42a46.43,46.43,0,0,1,30.07-.07" transform="translate(-204.62 -418.77)"/>
    <path class="cls-1" d="M225.19,430.06v6.41m12.31-6.41v6.41" transform="translate(-204.62 -418.77)"/>
    <line class="cls-2" x1="26.73" y1="11.28" x2="26.73" y2="17.69"/>
  </g>
</svg>
