<svg id="Слой_1" data-name="Слой 1" xmlns="http://www.w3.org/2000/svg" viewBox="0 0 236.48 236.48">
  <defs>
    <style>
      .cls-1 {
        fill: #fff;
        fill-rule: evenodd;
      }
    </style>
  </defs>
  <title>М</title>
  <path class="cls-1" d="M-220.57,1290.16L-102.33,1396,15.91,1290.16v15.25l-118.24,105.89-118.24-105.89v-15.25h0Zm172.9,91.74-8.48,7.65-46.17,41.35-46.17-41.35-8.48-7.65,0,0-1.6,1.43-62,55.48v15.25l63.55-56.91,54.69,49,54.69-49,63.55,56.91v-15.25l-62-55.48-1.6-1.43,0,0h0Zm-4,38.5,4-3.61h0l8.52,7.63,55.05,49.3V1489l-63.57-56.93-54.67,49-54.67-49L-220.57,1489v-15.25l55.05-49.3,8.52-7.63h0l4,3.61,50.65,45.36,50.65-45.36h0Zm67.59-60.52-35.57,31.86,8.52,7.63,27.06-24.23v-15.25h0Zm0-34.86-55,49.29,8.52,7.63,46.52-41.66V1325h0Zm0,69.2-16.4,14.69L8,1416.53l7.89-7.06v-15.25h0Zm-236.48-34.34v15.25l27.06,24.23,8.52-7.63-35.57-31.86h0Zm0-34.86v15.25l46.52,41.66,8.52-7.63-55-49.29h0Zm0,69.2v15.25l7.89,7.06,8.52-7.63-16.4-14.69h0Zm63.58,60.23-63.58,56.94v15.25L-157,1469.7v-15.25h0Zm109.32,0v15.25l63.58,56.94v-15.25Z" transform="translate(220.57 -1290.16)"/>
</svg>
